<?xml version="1.0" standalone="no"?>
<!DOCTYPE svg PUBLIC "-//W3C//DTD SVG 20010904//EN"
 "http://www.w3.org/TR/2001/REC-SVG-20010904/DTD/svg10.dtd">
<svg version="1.0" xmlns="http://www.w3.org/2000/svg"
 width="309.000000pt" height="309.000000pt" viewBox="0 0 309.000000 309.000000"
 preserveAspectRatio="xMidYMid meet">
<metadata>
Created by potrace 1.14, written by Peter Selinger 2001-2017
</metadata>
<g transform="translate(0.000000,309.000000) scale(0.100000,-0.100000)"
fill="#000000" stroke="none">
<path d="M1508 2855 c-2 -2 -28 -6 -58 -10 -46 -6 -93 -15 -185 -38 -47 -12
-125 -41 -125 -47 0 -4 -6 -7 -13 -7 -20 0 -117 -45 -117 -55 0 -4 -4 -7 -8
-6 -13 5 -165 -98 -212 -142 -23 -22 -44 -40 -46 -40 -6 0 -104 -106 -122
-132 -9 -13 -24 -32 -34 -42 -10 -11 -20 -28 -24 -38 -3 -10 -9 -18 -12 -18
-4 0 -19 -21 -32 -47 -14 -26 -31 -54 -38 -62 -7 -7 -11 -20 -8 -27 3 -8 2
-14 -3 -14 -7 0 -34 -52 -36 -70 -1 -3 -9 -23 -18 -44 -19 -42 -46 -142 -52
-187 -2 -16 -6 -32 -8 -36 -7 -12 -20 -177 -19 -243 1 -64 11 -181 17 -190 2
-3 6 -25 10 -50 4 -24 11 -52 16 -62 5 -10 7 -18 5 -18 -3 0 2 -19 10 -42 9
-24 17 -47 18 -53 1 -5 6 -17 11 -25 5 -8 10 -20 11 -26 6 -39 124 -247 163
-285 9 -9 23 -26 31 -39 40 -60 269 -267 270 -243 0 4 5 0 11 -10 6 -9 14 -15
20 -12 5 4 9 2 9 -4 0 -5 45 -33 100 -61 55 -27 100 -47 100 -44 0 4 6 1 14
-5 16 -14 154 -54 246 -72 65 -13 318 -18 395 -8 78 11 205 42 205 51 0 5 4 7
9 3 17 -10 222 82 301 135 14 9 42 28 62 41 20 13 34 27 32 31 -3 4 1 8 9 8
17 0 153 128 149 141 -1 5 2 8 7 7 14 -4 132 152 124 165 -3 5 -1 7 4 4 9 -6
27 20 23 32 -1 2 3 7 8 10 8 5 72 124 73 136 0 2 7 21 15 42 20 46 51 149 58
188 3 17 8 41 11 55 35 157 19 423 -35 590 -6 19 -13 46 -16 60 -3 13 -9 29
-13 35 -4 5 -20 40 -35 77 -15 37 -34 72 -42 79 -7 6 -12 15 -9 19 3 4 -2 13
-10 20 -8 7 -15 18 -15 24 0 6 -9 18 -19 26 -11 7 -18 17 -16 20 13 22 -255
299 -288 299 -5 0 -16 8 -25 18 -40 45 -286 171 -313 160 -3 -1 -13 4 -22 11
-9 8 -21 11 -27 7 -5 -3 -10 -2 -10 3 0 8 -98 32 -195 48 -42 6 -282 14 -287
9z"/>
</g>
</svg>
